<?xml version="1.0" encoding="UTF-8"?>
<svg id="Layer_1" data-name="Layer 1" xmlns="http://www.w3.org/2000/svg" viewBox="0 0 568.28 478.03">
  <defs>
    <style>
      .cls-1, .cls-2, .cls-3, .cls-4, .cls-5 {
        stroke: #231f20;
        stroke-miterlimit: 10;
      }

      .cls-1, .cls-3 {
        stroke-width: 10px;
      }

      .cls-1, .cls-6 {
        fill: #fff;
      }

      .cls-2 {
        stroke-width: 8px;
      }

      .cls-2, .cls-3, .cls-4, .cls-5 {
        fill: none;
      }

      .cls-7 {
        fill: #231f20;
      }

      .cls-4 {
        stroke-width: 4.98px;
      }

      .cls-8 {
        fill: #939598;
      }

      .cls-5 {
        stroke-width: 5.14px;
      }

      .cls-9 {
        fill: #414042;
      }
    </style>
  </defs>
  <circle class="cls-6" cx="124.89" cy="124.83" r="119.61"/>
  <g>
    <polyline class="cls-4" points="78.79 169.58 66.87 150.95 87.84 137.53"/>
    <path class="cls-7" d="M100.51,129.42c-4.55,6.03-9.53,14.54-11.55,21.47l-2.78-12.29-10-7.67c7.14,1.06,16.96.1,24.33-1.5Z"/>
  </g>
  <g>
    <path class="cls-9" d="M107.67,240.28l7.89-3.46-.85-2.06-13.2,5.35c1.97.01,4.04.08,6.17.18Z"/>
    <polygon class="cls-9" points="111 220.17 111.57 222.44 74.44 232.01 73.69 229 111 220.17"/>
    <polygon class="cls-9" points="117.28 211.11 117.7 213.36 74.16 221.85 73.61 218.91 117.28 211.11"/>
    <path class="cls-9" d="M112.21,198.21l.03,1.58-22.5,1c-.04-.92-.06-1.85-.05-2.79l22.52.21Z"/>
    <path class="cls-9" d="M115.96,195.84l-.07.3-44.08-7.78c.26-1.52.63-3.13,1.05-4.64l43.1,12.12Z"/>
    <path class="cls-9" d="M107.6,188.95c-.29.35-.5.76-.72,1.15l-31.55-17.27c.79-1.45,1.64-2.87,2.6-4.21l29.67,20.32Z"/>
    <polygon class="cls-9" points="111.04 204.38 111.35 206.66 93.48 209.26 93.12 206.63 111.04 204.38"/>
    <path class="cls-9" d="M117.29,187.55c-.4.16-.8.33-1.16.54l-18.66-36.39c1.31-.7,2.65-1.3,4.01-1.86l15.81,37.71Z"/>
    <path class="cls-9" d="M122.28,192.31l-.82.15-10.44-45.32c1.43-.29,2.85-.6,4.3-.81l6.96,45.98Z"/>
    <path class="cls-9" d="M130.01,187.91c-.49-.18-.98-.31-1.46-.44l4.62-17.46c.85.23,1.69.46,2.52.75l-5.68,17.14Z"/>
    <path class="cls-9" d="M132.83,194.11c-.46-.27-.91-.45-1.36-.7l17.77-37.15c1.05.53,2.14,1.05,3.16,1.61l-19.57,36.24Z"/>
    <polygon class="cls-9" points="142.44 190.34 140.72 189.14 161.57 158.22 164.44 160.24 142.44 190.34"/>
    <polygon class="cls-9" points="160.95 180.51 158.85 178.67 168.12 167.8 170.53 169.91 160.95 180.51"/>
    <path class="cls-9" d="M125.16,188.86c-.39-.02-.87-.11-1.13-.08l.92-27.63c1.11,0,2.13.13,3.18.22l-2.98,27.48Z"/>
    <polygon class="cls-9" points="153.54 200.28 151.83 198.55 178.72 171.52 180.83 173.66 153.54 200.28"/>
    <polygon class="cls-9" points="152.73 212.4 150.97 210.52 184.72 178.95 186.57 180.94 152.73 212.4"/>
    <polygon class="cls-9" points="170.47 221.18 168.3 219.1 181.17 205.95 183.07 207.76 170.47 221.18"/>
    <path class="cls-9" d="M178.48,232.41l20.58-36.22-.47-.36-25.86,36.58c.66.51,1.36.96,2.04,1.44,1.27-.45,2.5-.93,3.71-1.44Z"/>
    <path class="cls-9" d="M195.75,222.03l5.74-28.42c-.09,0-.17-.04-.25-.07l-9.61,31.53c1.4-.98,2.77-1.99,4.12-3.04Z"/>
    <path class="cls-9" d="M204.4,211.08c-.65.12-1.31.23-1.97.29l-.25-12.07.8-.12,1.42,11.9Z"/>
    <polygon class="cls-9" points="161.38 216.62 159.43 214.57 177.01 198.02 178.82 199.93 161.38 216.62"/>
    <path class="cls-9" d="M210.68,209.11l-6.61-14.3-.56.2c-.13.05-.09.02-.14.06l5.62,15.56c.56-.5,1.12-1.01,1.68-1.52Z"/>
    <path class="cls-9" d="M215.67,203.56l-7.62-10.3-1.13.73,7.39,11.38c.47-.6.91-1.21,1.36-1.81Z"/>
    <path class="cls-9" d="M226.28,185.38l-8.83-4.19-.79,1.5,8.7,4.61c.31-.64.62-1.28.92-1.92Z"/>
    <path class="cls-9" d="M229.25,178.98l-12.01-3.76-.56,1.54,11.66,4.2c.3-.66.6-1.32.9-1.98Z"/>
    <path class="cls-9" d="M235.36,165.2l-14.45-.22-.1,1.63,13.55.83c.34-.75.67-1.5,1-2.25Z"/>
    <path class="cls-9" d="M238.79,157.14l-19.16,2.51.16,1.72,17.94-1.62c.36-.87.71-1.74,1.06-2.61Z"/>
    <path class="cls-9" d="M245.68,126.14l-26.06,13.6c.35.63.67,1.26.96,1.91l25.15-12.15c.03-1.14.01-2.26-.05-3.36Z"/>
    <path class="cls-9" d="M244.68,116.1c-.17-.25-.32-.51-.49-.77l-33.86,21.98c.37.56.76,1.12,1.07,1.69l33.5-20.45c-.09-.82-.17-1.63-.23-2.45Z"/>
    <polygon class="cls-9" points="228.5 102.61 230.44 104.79 202.86 128.64 201.44 127.05 228.5 102.61"/>
    <polygon class="cls-9" points="228.48 88.96 230.68 91.12 198.63 122.98 197.07 121.45 228.48 88.96"/>
    <path class="cls-9" d="M205.37,69.14c.9.56,1.79,1.14,2.65,1.74l-22.42,33.32c-.62-.44-1.26-.85-1.89-1.24l21.67-33.81Z"/>
    <polygon class="cls-9" points="194.11 68.05 196.83 69.53 175.93 106.31 174.12 105.33 194.11 68.05"/>
    <polygon class="cls-9" points="220.5 82.88 222.8 84.89 200.68 109.81 198.86 108.22 220.5 82.88"/>
    <polygon class="cls-9" points="172.03 69.83 174.74 70.77 164.61 98.94 162.71 98.27 172.03 69.83"/>
    <path class="cls-9" d="M166.08,53.31c1.09.22,2.16.49,3.23.78l-11.15,43.68c-.63-.17-1.27-.34-1.9-.46l9.82-44Z"/>
    <polygon class="cls-9" points="134.38 50.39 137.55 50.29 138.48 91.94 136.27 92 134.38 50.39"/>
    <path class="cls-9" d="M124.54,54.13c.99-.14,2-.24,3.02-.31l4.13,43.93c-.71.04-1.43.11-2.16.22l-4.99-43.84Z"/>
    <polygon class="cls-9" points="118.49 76.64 121.08 76.2 123.79 93.63 121.48 94.02 118.49 76.64"/>
    <polygon class="cls-9" points="155.3 52.33 158.54 52.82 153.98 82.72 151.62 82.35 155.3 52.33"/>
    <polygon class="cls-9" points="108.76 72.42 111.42 71.88 116.27 95.31 113.95 95.78 108.76 72.42"/>
    <polygon class="cls-9" points="96.29 59.6 99.05 58.88 109.45 100.42 107.11 101.03 96.29 59.6"/>
    <polygon class="cls-9" points="69.05 64.1 71.63 63.24 84.71 103.15 82.24 103.97 69.05 64.1"/>
    <polygon class="cls-9" points="61.62 69.69 64.16 68.83 78.44 111.25 75.95 112.09 61.62 69.69"/>
    <polygon class="cls-9" points="60.86 94.56 63.38 93.71 68.62 109.22 66.08 110.07 60.86 94.56"/>
    <polygon class="cls-9" points="86.71 59.79 89.43 59.01 98.46 90.79 95.99 91.5 86.71 59.79"/>
    <polygon class="cls-9" points="49.11 86.69 51.62 85.86 60.47 112.61 57.9 113.46 49.11 86.69"/>
    <polygon class="cls-9" points="36.72 76.09 39.18 75.31 53.15 118.79 50.55 119.62 36.72 76.09"/>
    <polygon class="cls-9" points="12.43 82.88 14.89 82.2 24.83 117.47 22.21 118.19 12.43 82.88"/>
    <path class="cls-9" d="M7.29,96.21l8.76,33.66,2.69-.69-10.1-38.04c-.59,1.56-1.08,3.2-1.34,5.07Z"/>
    <polygon class="cls-9" points="28.22 77.19 30.68 76.43 41.63 111.78 39.04 112.57 28.22 77.19"/>
    <g>
      <path class="cls-8" d="M224.77,188.49c-3.19-3.45-6.04-6.68-6.58-9.12-.15-.98.04-1.83.9-2.64,1.92-1.83,7.42-2.38,12.41-2.81.69-1.57,1.39-3.15,2.1-4.73-6.53,1.11-14.7,2.14-17.88,5.16-1.49,1.44-2,3-1.57,4.95.84,3.46,4.34,8.08,8.52,13.22.73-1.33,1.43-2.68,2.11-4.04Z"/>
      <path class="cls-8" d="M88.24,235.87c1.09.43,2.14.95,3.19,1.5.49-.4.98-.79,1.48-1.15,1.65-1.22,3.64-2.42,5.76-3.67,7.48-4.38,16-8.94,19.57-15.99,1.92-3.77,1.32-6.5.45-8.23-1.82-3.73-6.25-5.59-12.05-7.22-5.78-1.64-12.98-3.31-20.01-5.98-2.38-.89-4.37-1.81-5.26-2.4-5.91-3.85-8.3-9.77-7.12-14.34.21-.65.65-2.92,3.62-5.56,6.57-5.79,15.1-2.8,19.23-.54,1.55.8,3.38,2.14,5.38,3.78,3.76,3.11,7.95,7.06,11.47,10.56,3.55,3.47,6.21,6.62,7.88,7.57,1.01.59,1.48.31,2.04-.97,2.34-4.07,9.36-16.04,13.42-22.31.57-.84,1.06-1.57,1.45-2.14,2.47-3.44,6.5-6.77,10.77-8.59,4.24-1.85,8.69-2.25,11.12-.74,2.41,1.42,3.39,5.62,2.36,10.92-.28,1.54-1.6,4.48-3.23,7.79-2.52,5.17-5.78,11.13-8.19,16.74-2.39,5.65-3.99,10.89-2.7,15.28.74,2.51,2.47,4.71,5.06,6.37,4.26,2.74,9.54,2.66,14.44,1.08,4.94-1.55,9.57-4.51,13.19-6.92,1.2-.79,2.27-1.5,3.15-2.09l.96-.62c2.06-1.28,5.7-3.75,8.63-6.41,3.02-2.6,5.23-5.44,5.97-6.14.19-.11.44-.51.65,1.2.47,3.51,2.39,10.28,4.79,16.95,1.12-1,2.25-2.02,3.38-3.05-1.35-2.34-2.62-4.7-3.76-6.97-2.02-4.03-3.39-7.84-3.5-10.47-.02-2.47.32-2.08-.13-1.48-.3.52-.9,1.38-1.87,2.39-1.02.95-2.09,2.33-4.31,2.98-3.99,1.72-8.43,4.24-12.89,6.88l-.97.57c-.94.57-2.08,1.26-3.35,2.04-5.68,3.62-16.79,9.78-22.59,6.06-1.26-.79-2.03-1.76-2.42-3.01-2.03-6.82,6.58-19.88,11.1-28.26,1.96-3.53,3.47-6.37,3.93-8.25.73-2.77,2.81-12.06-5.81-17.4-5.76-3.5-13.12-2.44-18.45.57-5.43,2.95-8.97,7.63-10.36,10.1-.36.63-.78,1.43-1.25,2.39-2.81,5.66-7.99,17.69-9.41,20.94-.43.65-.87.84-1.56.54-1.53-.66-3.72-3.65-6.47-7.07-2.74-3.47-5.9-7.45-8.61-10.53-1.78-2.01-3.43-3.69-5.07-4.91-2.34-1.71-5.42-3.7-9.35-4.6-1.95-.4-4.14-.61-6.45-.16-2.41.44-4.9,1.51-7.39,3.27-5.82,4.24-8.14,10.14-8.79,13.77-.51,2.81-.45,5.39.05,7.7.51,2.16,1.42,3.95,2.52,5.45,2.21,2.99,5.15,4.83,7.84,6.13,1.15.56,3.16,1.14,5.93,1.82,3.96.98,10.57,2.22,16.54,3.55,5.96,1.32,11.32,3.15,12.71,5.89.21.35.73,1.48-.48,3.86-2.99,5.81-11.32,9.88-18,13.44-2.28,1.2-4.38,2.36-6.14,3.56-1.04.71-2.78,1.97-4.62,3.69.87.25,1.72.53,2.55.86Z"/>
      <path class="cls-8" d="M205.25,85.6c-2.37,1.55-4.68,3.52-7.07,5.64-5.75,5.13-12.08,10.98-18.56,12.54-1.86.46-3.11.34-3.81-.33-1.88-1.91-1.69-7.37-1.26-13.54.58-6.22,1.21-13.01,1.58-17.08.28-3.16.39-5.42.25-6.75-.58-5.64-2.51-12.78-9.28-15.92-2.16-1.03-5.85-1.89-10.33-.69-7.73,2.22-11.1,9.8-13.09,14.81l-.32.81c-.95,2.38-1.62,5.25-2.26,8.29-1.68,7.9-3.22,16.77-8.16,20.71-2.25,1.78-3.65,1.43-4.14,1.33-5.52-1.49-11.5-15.01-13.61-19.51l-.44-.93c-.54-1.12-3.19-6.62-7.39-11.64-4.14-4.98-9.91-9.43-15.66-8.51-4.32.71-7.57,3.94-9.39,9.59-1.33,4.02-.81,9.69-.16,16.26,1.04,10.76,2.59,24.04-5.23,28.24-6.66,3.63-14.73-8.45-18.11-13.61-.5-.75-.95-1.42-1.32-1.98-.55-.78-1.19-1.82-1.92-3-4.88-7.84-13.04-20.85-24.21-16.9-12.36,4.37-10.74,21.64-9.82,33.23.23,2.79.41,5.19.34,6.78-.43,8.82-2.96,13.53-7.4,13.77-3.16.19-5.82-1.95-7.97-4.62-.36,2.07-.73,4.16-1.02,6.27,2.35,1.76,5.2,2.89,8.69,2.69,8.12-.45,12.57-6.79,13.02-18.51.07-1.81-.15-4.32-.41-7.21-.83-9.53-2.42-25.41,6.08-28.41,7.07-2.65,14.17,9.06,18.02,15.31.76,1.24,1.44,2.33,2,3.15.36.54.79,1.18,1.27,1.91,4.69,7.3,13.92,20.71,25.11,14.73,10.86-5.83,9.18-20.03,8.13-32.75-.51-5.92-.98-11.56.17-14.83,1.2-3.44,2.82-5.62,4.43-5.84,4.67-.76,13.28,8.53,17.84,17.75l.45.91c4.89,9.88,10.52,20.08,17.37,21.79,1.94.43,4.7.5,8.01-2.18,6.15-4.85,8.32-14.44,10.59-23.16.76-2.89,1.54-5.6,2.51-7.71l.37-.8c1.83-4.01,5.26-10.83,10.75-12.17,2.24-.61,3.51-.22,4.26.13,2.98,1.3,5.36,5.41,6.41,11.97.17,1.05.16,3.46.07,6.23-.38,15.31-2.51,29.87,2.22,34.64,1.24,1.28,3.47,2.39,7.78,1.43,7.73-1.67,14.87-7.67,21.27-12.96,2.41-1.96,4.72-3.8,6.97-5.15,5.67-3.48,14.23-5.09,17.94-2.02,2.58,2.12,2.33,6.7,1.86,9.2-1.04,5.84-4.36,10.46-7.85,15.19-4.37,5.78-8.82,11.71-11.01,18.9-1.46,4.52-1.45,7.38.24,9.33,3.55,4.06,14.34,1.7,27.77,1.7,1.86,0,3.86.06,5.89.2.45-1.81.86-3.64,1.18-5.51-2.54-.08-5.15-.03-7.83.15-9.48.44-21.61,3.03-23.75.71-.63-.73-.4-2.52.57-5.16,2.13-6.22,6.36-11.3,10.87-16.76,3.76-4.65,7.61-9.56,9-16.15,1.38-6.56-.3-11.9-4.51-15.34-7.52-6.1-18.96-2.13-24,1.32Z"/>
    </g>
    <g>
      <path class="cls-8" d="M231.35,174.24c.6-1.35,1.2-2.71,1.81-4.08-6.71-3.26-11.99-5.83-12.3-7.38-.12-.88,1.23-2.35,3.9-4.13,4.71-3.26,10.24-5.81,16.03-8.76.28-.15.56-.31.84-.46.85-2.56,1.63-5.14,2.26-7.78-1.68,1.23-3.46,2.37-5.26,3.49-5.66,3.37-11.44,6.64-16.46,10.53-4.1,3.12-5.99,5.51-5.54,7.63.5,2.03,3.55,4.1,7.09,6.36,2.64,1.62,5.38,3.26,7.63,4.56Z"/>
      <path class="cls-8" d="M203.45,190.77c-.38.1-.64.41-.85.8-.11.17-.2.39-.28.66.04.21.2.42.31.72.41,1.2.56,3.12.52,5.77-.18,5.41-1.4,11.85-3.2,17.91-.29.93-.6,1.86-.94,2.77,2.06-1.71,4.1-3.49,6.14-5.31.38-5.12.33-9.91-.1-13.98-.13-.84-.27-1.56-.41-2.17-.1-.62,0-1.23.03-1.68.1-.92.26-1.58.64-1.68,1.23-.29,5.94,2.77,12.14,6.48.8-1.18,1.59-2.36,2.33-3.56-1.95-.92-4.95-2.34-8.04-3.8-1.81-.87-3.55-1.74-4.95-2.24-1.48-.72-2.54-.83-3.34-.7Z"/>
      <path class="cls-8" d="M88.24,235.87c2.4.96,4.67,2.27,6.96,3.55.51-.05,1-.1,1.53-.16,9.54-1.02,23.5-3.51,27.59-.08.71.58,1.01,1.26.97,2.17-.01.32-.06.66-.14,1.01,1.3.28,2.54.58,3.74.92.26-.88.43-1.7.48-2.45.08-1.86-.58-3.35-2.03-4.6-5.48-4.73-19.77-3.14-31.59-2.3-3.52.24-6.58.37-8.57.13-7.68-.94-12.08-4.74-12.75-7.51-.54-2.37,1.15-5.66,4.88-8.67,3.06-2.49,7.53-4.42,12.3-6.38,4.5-1.84,9.29-3.79,13.57-6.09,4.28-2.25,8.03-4.95,10.72-6.94,1.98-1.4,2.82-2.05,2.09-2.04-.88-.32-3.74-1.82-6.97-5.08-3.26-3.26-6.87-8-9.49-14.09-1.98-4.55-3.48-10.21-3.29-15.38.12-5.21,1.99-9.79,5.47-11.89.53-.24,2.18-1.33,5.81-.97,5.73.58,9.71,3.84,12.22,8.01,2.52,4.15,3.66,9.15,4.31,13.81.68,4.84.93,9.43,1.32,12.93.84,8.73,1.52,10.96,3.37,11.65,2.55,1.11,7.75-.86,14.86-5.28,2.05-1.29,4.71-3.45,7.87-5.8,7.3-5.68,19.61-13.16,26.91-8.96,1.28.72,2.08,1.61,2.53,2.76,2.45,6.37-5.43,18.19-8.59,23.41-.83,1.32-1.5,2.41-1.91,3.19l-.34.64c-2.43,4.52-4.66,9.36-5.55,14.02-.42,2.33-.51,4.62-.07,6.79.2,1.08.58,2.14,1.06,3.15.61,1.13,1.96,2.7,3.23,3.92.51.5,1.06.96,1.62,1.4,1.81-.56,3.57-1.17,5.25-1.85-1-.37-1.95-.89-2.74-1.62-.81-.75-1.64-1.77-2.31-3.13-.34-.68-.63-1.44-.87-2.29-.19-.81-.15-1.54-.1-2.41.22-3.44,1.56-8.29,4.92-14.97l.33-.66c.37-.73.98-1.78,1.73-3.04,5.47-9.36,11.78-19.33,8.9-27.2-.98-2.6-2.97-4.86-5.8-6.46-5.11-2.91-11.12-2.58-16.64-.35-5.53,2.21-10.65,6.2-15,9.9-2.89,2.47-5.29,4.7-7.02,5.97-5.65,4.12-9.12,5.59-10.45,5.01-1.29-.72-1.58-3.63-1.68-8.5-.06-3.16.24-7.61.18-12.29-.08-5.12-.53-10.64-2.77-15.59-2.1-4.92-6.95-9.39-14.4-10.64-5.19-.88-10.31.2-14.4,2.83-5.63,3.61-8.09,9.45-8.08,15.38-.02,5.91,2.33,12.24,5.81,17.47,2.74,4.17,6.49,8.13,9.92,10.82,3.4,2.74,6.35,4.11,6.86,4.61.1.06.3.33-1.3,1.12-2.31,1.27-5.85,3.05-9.86,4.72-4.01,1.69-8.54,3.29-12.76,4.87-5.02,1.89-9.74,3.85-13.22,6.51-5.65,4.3-7.98,9.39-6.53,14.84.6,2.42,1.94,4.63,3.86,6.48,4.59-.71,9.63-.07,14.06,1.7Z"/>
      <path class="cls-8" d="M189.86,68.04c-3.73,2.43-6.99,6.38-10.28,10.63-5.5,7.13-11.33,15.4-17.41,18.05-2.12.93-2.84.45-3.1.29-1.53-1.04-2.38-4.46-3.22-8.95-.82-4.53-1.8-9.89-2.67-14.69-2.48-12.36-6.7-24.29-16.07-26.27-3.35-.75-6.78-.08-10.02,1.82-9.64,5.82-10.4,17.96-10.93,28.34-.21,4.7-.34,9.13-1.01,12.29-1.04,4.89-2.89,8.01-4.94,8.59-2.18.45-6.22-1.53-10.53-7.2-1.37-1.79-2.98-4.69-4.87-8.05-5.46-9.78-12.75-21.87-23.39-21.99-3.01-.04-5.77.91-7.86,2.71-6.31,5.42-5.91,17.33-5.22,28.07.09,1.4.17,2.56.18,3.36v.85c.18,15.18-2.55,19.78-4.79,20.97-1.49.77-3.66.03-5.24-.75-7.09-3.46-11.28-10.45-15.3-17.24-3.12-5.27-6.32-10.71-10.78-14.81-3.51-3.24-6.78-4.72-9.87-4.51-.15,1.17-.37,2.34-.71,3.5-.12.4-.25.77-.38,1.14.12-.07.24-.18.36-.22,1.42-.52,3.92.65,6.68,3.2,3.99,3.72,6.87,8.72,9.94,14,4.23,7.25,8.67,14.78,16.85,18.8,4.04,1.97,7.73,2.16,10.85.49,6.96-3.66,7.78-14.83,7.62-25.19v-.84c-.02-.84-.1-2.07-.21-3.56-.41-6.04-1.43-20.16,3.56-24.43.92-.78,2.02-1.14,3.44-1.12,7.74.09,14.68,11.47,19.53,19.84,2.02,3.46,3.73,6.43,5.31,8.45,5.28,6.67,10.95,9.79,15.73,8.73,2.95-.78,6.73-3.24,8.79-12.14.82-3.49,1.08-8.09,1.44-12.97.76-9.56,1.89-20.71,9.58-25.07,2.07-1.23,3.37-1.11,4.13-.95,5.99,1.18,10.58,13.15,12.94,22.83,3.28,12.79,4.46,23.66,8.94,26.66,1.77,1.19,3.88,1.1,6.64-.03,7.36-3.05,14.14-11.51,20.44-18.97,3.36-3.94,6.62-7.5,10.06-9.58,4.14-2.49,8.05-2.96,10.01-1.57,2.62,1.71,4.48,7.64,2.65,14.99-.46,1.85-1.61,4.54-2.99,7.62-4.62,10.43-11.61,23.96-7.42,31.45,1.04,1.9,2.64,3.18,4.69,3.81,6.43,1.89,17.15-2.61,27.3-6.32,1.54-.57,2.8-1.03,3.67-1.26,5.61-1.49,9.8-1.91,12.97-1.77-.21-1.88-.38-3.76-.4-5.66-4.92-.22-10.23.93-14.8,2.45-.92.3-2.25.84-3.84,1.52-6.15,2.51-18.33,8.45-23.69,6.93-.99-.28-1.66-.83-2.15-1.74-2.91-5.38,4.31-18.48,8.32-26.69,1.55-3.14,2.84-5.89,3.44-7.96,2.58-8.82.51-16.95-5.23-20.82-4.76-3.25-10.71-2.98-16.75.98Z"/>
    </g>
  </g>
  <ellipse class="cls-9" cx="135.51" cy="125.15" rx="15.33" ry="11.37" transform="translate(-45.58 160.25) rotate(-53.69)"/>
  <ellipse class="cls-9" cx="40.02" cy="150.11" rx="11.37" ry="15.33" transform="translate(-113.99 170.5) rotate(-82.62)"/>
  <circle class="cls-3" cx="124.62" cy="124.62" r="119.61"/>
  <g>
    <ellipse class="cls-9" cx="161.01" cy="73.1" rx="15.33" ry="11.37" transform="translate(-10.57 30.34) rotate(-10.43)"/>
    <ellipse class="cls-9" cx="129.89" cy="67.67" rx="15.33" ry="11.37" transform="translate(-13.78 39.2) rotate(-16.31)"/>
    <path class="cls-5" d="M165.18,17.26c-.15,1.77,1.42,3.13,2.61,4.45,1.19,1.32,2,3.59.61,4.7-.57.46-1.35.53-2.08.6-1.53.13-3.06.26-4.59.38-.3.03-.64.07-.82.32-.17.23-.13.54-.06.81.66,2.5,3.43,3.8,5.98,4.22,2.55.42,5.25.3,7.58,1.42,1.51.72,2.88,2.48,2.1,3.96-.63,1.21-2.25,1.41-3.61,1.47-3.85.15-7.7.3-11.54.46.66,3.19,4.05,5.07,7.26,5.61,3.21.54,6.54.19,9.69,1,.57.15,1.16.35,1.58.76.89.88.68,2.46-.15,3.39-.83.93-2.1,1.34-3.33,1.56-4.34.79-8.79-.21-13.2-.27-.84-.01-1.85.1-2.24.85-.4.75.07,1.66.62,2.31,2.47,2.92,6.45,4.06,10.26,4.46,1.76.19,4.06.76,4.1,2.53.01.53-.21,1.03-.5,1.47-1.35,2.03-3.97,2.78-6.4,2.93-2.43.15-4.91-.14-7.27.46s-4.67,2.43-4.75,4.86"/>
    <path class="cls-5" d="M118.03,11.79c-.2,2.05-1.36,3.99-3.07,5.15-.41.28-.87.54-1.08.99-.52,1.13.93,2.17,2.15,2.4,1.52.29,3.12.23,4.61-.18.37-.1.77-.22,1.11-.05.41.21.52.74.51,1.2-.03,2.02-1.43,3.84-3.21,4.79-1.78.95-3.88,1.13-5.89.98-1.53-.12-3.15-.4-4.54.25-1.39.65-2.18,2.76-.99,3.73.41.34.96.46,1.49.55,3.6.62,7.35.39,10.86-.65,1.11-.33,2.24-.75,3.39-.67,1.16.08,2.37.84,2.52,1.99.11.83-.35,1.63-.9,2.25-2.53,2.84-6.79,3.05-10.58,3.31-3.79.26-8.16,1.19-9.84,4.6-.17.35-.31.73-.24,1.11.16.9,1.28,1.2,2.19,1.29,4.7.45,9.46.19,14.08-.78,1.21-.25,2.46-.56,3.66-.27,1.2.29,2.32,1.38,2.14,2.61-.12.82-.76,1.46-1.42,1.96-1.4,1.06-3.07,1.78-4.8,2.07-2.16.36-4.37.08-6.56.13-2.19.05-4.52.51-6.07,2.06.16,2.97,3.56,4.76,6.53,4.72,2.97-.04,5.81-1.26,8.77-1.52,2.51-.22,5.08.27,7.33,1.4,1.53.77,3.1,2.37,2.47,3.97-.34.86-1.2,1.36-2,1.81-2.66,1.47-5.31,2.93-7.97,4.4"/>
  </g>
  <circle class="cls-1" cx="392.38" cy="302.13" r="170.89"/>
  <g>
    <polyline class="cls-4" points="369.98 318.34 375.86 297.03 399.87 303.65"/>
    <path class="cls-7" d="M414.37,307.66c-7.52.65-17.18,2.63-23.69,5.76l7.29-10.28-.98-12.56c3.98,6.02,11.26,12.68,17.38,17.09Z"/>
  </g>
  <g>
    <path class="cls-9" d="M301.97,435.41c-.28.34-.48.7-.8,1.04l32.2,27.63c.93.33,1.85.68,2.78,1.02.64-.79,1.28-1.6,1.91-2.4l-36.09-27.29Z"/>
    <path class="cls-9" d="M334.88,446.17l-1.56,3.16-31.43-17.1c.12-.3.26-.59.42-.88l32.57,14.82Z"/>
    <path class="cls-9" d="M322.25,432.13l-.55,2.26-13.82-3.63c.09-.4.19-.78.31-1.18l14.06,2.55Z"/>
    <polygon class="cls-9" points="340.1 424.36 340.02 427.5 303.22 425.8 303.27 424.03 340.1 424.36"/>
    <polygon class="cls-9" points="349.79 415.2 349.84 417.67 307.28 418.7 307.22 415.89 349.79 415.2"/>
    <polygon class="cls-9" points="348.48 403.04 348.11 404.83 319.95 399.34 320.57 396.4 348.48 403.04"/>
    <path class="cls-9" d="M352.97,398.04c-.24.59-.43,1.17-.61,1.75l-43.15-14.22c.35-1.1.72-2.19,1.13-3.24l42.63,15.7Z"/>
    <polygon class="cls-9" points="347.96 388.55 347 390.57 312.27 374.83 313.69 371.83 347.96 388.55"/>
    <polygon class="cls-9" points="344.72 408.56 344.56 410.43 326.86 409.53 327.08 406.87 344.72 408.56"/>
    <polygon class="cls-9" points="356.34 376.04 355.03 377.99 323.1 356.76 324.83 354.19 356.34 376.04"/>
    <polygon class="cls-9" points="367.28 374.66 365.89 376.47 330.47 349.76 332.28 347.39 367.28 374.66"/>
    <path class="cls-9" d="M373.48,362.27l-1.15,1.08-15.78-16.07c.66-.65,1.34-1.28,2.04-1.9l14.9,16.89Z"/>
    <path class="cls-9" d="M377.76,363.47l-.27.15-23.67-37.99c1.31-.82,2.75-1.62,4.15-2.32l19.79,40.16Z"/>
    <path class="cls-9" d="M377.29,352.64c-.46.02-.9.13-1.34.24l-8.25-35.01c1.61-.38,3.23-.7,4.87-.88l4.72,35.65Z"/>
    <polygon class="cls-9" points="368.11 365.52 366.63 367.28 352.75 355.72 354.46 353.7 368.11 365.52"/>
    <path class="cls-9" d="M384.81,358.92c-.39-.19-.78-.38-1.18-.5l14.59-38.2c1.4.51,2.74,1.1,4.06,1.73l-17.48,36.97Z"/>
    <path class="cls-9" d="M384.6,365.81l-.66-.51,26.73-38.06c1.17.87,2.35,1.72,3.48,2.66l-29.55,35.91Z"/>
    <path class="cls-9" d="M393.04,368.62c-.19-.49-.42-.93-.65-1.37l16.07-8.23c.4.78.79,1.57,1.12,2.38l-16.55,7.23Z"/>
    <path class="cls-9" d="M390.32,374.86c-.11-.52-.27-.98-.39-1.48l39.51-11.61c.31,1.14.65,2.29.91,3.43l-40.03,9.66Z"/>
    <polygon class="cls-9" points="399.54 379.49 399.29 377.4 436.21 372.25 436.64 375.73 399.54 379.49"/>
    <polygon class="cls-9" points="419.23 386.69 419.19 383.9 433.47 383.52 433.51 386.72 419.23 386.69"/>
    <path class="cls-9" d="M389.09,365.65c-.25-.31-.5-.72-.7-.89l21.16-17.78c.74.82,1.33,1.67,1.96,2.51l-22.43,16.16Z"/>
    <polygon class="cls-9" points="399.57 394.39 399.72 391.96 437.79 393.89 437.61 396.89 399.57 394.39"/>
    <polygon class="cls-9" points="390.01 401.89 390.24 399.32 436.28 403.31 436.04 406.03 390.01 401.89"/>
    <polygon class="cls-9" points="395.34 420.95 395.44 417.95 413.83 418.73 413.74 421.35 395.34 420.95"/>
    <path class="cls-9" d="M389.09,435.13c-.28-1.65-.46-3.32-.59-4.99l44.49-5.21.05.59-43.95,9.62Z"/>
    <path class="cls-9" d="M400.58,446.82c-.74-1.22-1.38-2.51-1.96-3.82l37.84-17.64c.04.08.07.16.12.23l-36,21.24Z"/>
    <path class="cls-9" d="M425.53,439.44c-.53-.4-1.05-.82-1.53-1.27l8.81-8.26.63.52-7.9,9.01Z"/>
    <polygon class="cls-9" points="392.65 411.14 392.88 408.32 416.94 410.34 416.73 412.95 392.65 411.14"/>
    <path class="cls-9" d="M424.07,459.36l-3.29-1.58,15.98-29.81c.06.01,0,0,.13.06l.52.28-13.35,31.04Z"/>
    <path class="cls-9" d="M432.61,466.55c.44-.2.86-.42,1.3-.61l7.31-35.7-1.3-.35-10.05,37.36c.91-.23,1.82-.47,2.73-.71Z"/>
    <path class="cls-9" d="M455.27,459.46l-1.82-12.78-2.4.25,1.27,13.54c.98-.34,1.96-.67,2.95-1.01Z"/>
    <path class="cls-9" d="M464.56,456.33l-8.07-27.17-1.65.41,6.91,27.68c.94-.31,1.87-.62,2.81-.93Z"/>
    <path class="cls-9" d="M473.71,453.29l-12.93-28.28-1.51.61,11.63,28.6c.94-.31,1.88-.62,2.81-.93Z"/>
    <path class="cls-9" d="M445.32,462.47l.28-14.27-2.43-.15-1.12,15.19c1.08-.28,2.17-.54,3.27-.77Z"/>
    <path class="cls-9" d="M490.52,443.46l-19.67-22.55-1.28,1.02,18.46,23.27c.77-.59,1.6-1.17,2.48-1.73Z"/>
    <path class="cls-9" d="M498.66,437.54l-24.7-21.16-1.17,1.27,23.49,21.82c.82-.61,1.58-1.29,2.38-1.94Z"/>
    <path class="cls-9" d="M519.64,414.61l-30.88-11.54c-.23.68-.49,1.34-.78,1.99l29.5,12.08c.72-.85,1.43-1.7,2.16-2.53Z"/>
    <path class="cls-9" d="M523.35,405.03c-.27,1-.52,2.01-.85,3.01l-38.67-11.57c.21-.62.37-1.28.54-1.93l38.98,10.49Z"/>
    <path class="cls-9" d="M506.01,430.56l-14.73-9.68c-.42.69-.92,1.32-1.38,1.98l13.95,9.95c.73-.74,1.45-1.49,2.15-2.25Z"/>
    <polygon class="cls-9" points="522.32 384.85 522 387.76 485.82 383.18 486.05 381.07 522.32 384.85"/>
    <polygon class="cls-9" points="532.45 375.72 532.32 378.8 487.21 376.25 487.3 374.07 532.45 375.72"/>
    <path class="cls-9" d="M531.75,345.28c.18,1.05.35,2.09.48,3.13l-39.77,5.6c-.09-.75-.21-1.5-.34-2.24l39.63-6.49Z"/>
    <polygon class="cls-9" points="525.04 336.17 525.75 339.19 484.43 348.23 483.95 346.22 525.04 336.17"/>
    <polygon class="cls-9" points="531.65 365.72 531.69 368.77 498.36 368.98 498.33 366.56 531.65 365.72"/>
    <polygon class="cls-9" points="508.96 320.94 510.07 323.59 482.34 334.89 481.57 333.02 508.96 320.94"/>
    <path class="cls-9" d="M517.26,305.47c.57.96,1.08,1.94,1.58,2.92l-39.94,20.91c-.3-.58-.59-1.17-.93-1.72l39.29-22.11Z"/>
    <polygon class="cls-9" points="498.25 279.94 500.44 282.24 470.08 310.77 468.56 309.17 498.25 279.94"/>
    <path class="cls-9" d="M488.89,275.13c.76.64,1.51,1.33,2.25,2.04l-29.91,32.44c-.5-.5-1.04-.98-1.61-1.46l29.27-33.02Z"/>
    <polygon class="cls-9" points="468.1 285.67 470.15 287.31 459.01 300.97 457.17 299.52 468.1 285.67"/>
    <polygon class="cls-9" points="510.79 296.8 512.59 299.54 487.3 316.13 486 314.13 510.79 296.8"/>
    <polygon class="cls-9" points="464.74 275.62 466.92 277.23 452.73 296.5 450.82 295.09 464.74 275.62"/>
    <polygon class="cls-9" points="465.93 257.77 468.32 259.34 444.37 294.85 442.35 293.52 465.93 257.77"/>
    <polygon class="cls-9" points="444.38 240.51 446.74 241.86 425.81 278.27 423.55 276.98 444.38 240.51"/>
    <polygon class="cls-9" points="435.26 238.73 437.59 240.05 415.59 279.02 413.3 277.73 435.26 238.73"/>
    <polygon class="cls-9" points="416.25 254.78 418.57 256.09 410.54 270.35 408.2 269.04 416.25 254.78"/>
    <polygon class="cls-9" points="459.39 250.77 461.79 252.27 444.19 280.23 442.01 278.87 459.39 250.77"/>
    <polygon class="cls-9" points="414.25 240.79 416.54 242.1 402.56 266.56 400.21 265.22 414.25 240.79"/>
    <polygon class="cls-9" points="413.85 224.49 416.08 225.8 393.07 265.25 390.72 263.87 413.85 224.49"/>
    <polygon class="cls-9" points="392.56 210.96 394.71 212.33 375.13 243.31 372.84 241.84 392.56 210.96"/>
    <polygon class="cls-9" points="384.15 208.58 386.27 210 362.35 246.59 360.03 245.06 384.15 208.58"/>
    <polygon class="cls-9" points="364.8 222.04 366.99 223.56 357.63 237.36 355.35 235.79 364.8 222.04"/>
    <polygon class="cls-9" points="407.35 218.9 409.56 220.23 390.59 251.99 388.27 250.6 407.35 218.9"/>
    <polygon class="cls-9" points="363.95 208.23 366.06 209.75 349.3 233.49 347.04 231.86 363.95 208.23"/>
    <polygon class="cls-9" points="365.05 192.56 367.05 194.07 339.25 231.78 336.99 230.09 365.05 192.56"/>
    <polygon class="cls-9" points="346.56 176.65 348.42 178.27 324.8 205.85 322.71 204.04 346.56 176.65"/>
    <polygon class="cls-9" points="339.91 172.01 341.72 173.68 311.66 206.86 309.55 204.93 339.91 172.01"/>
    <polygon class="cls-9" points="319.39 181.49 321.29 183.34 307.41 197.76 305.38 195.78 319.39 181.49"/>
    <polygon class="cls-9" points="359.47 186.42 361.43 187.96 337.96 218.34 335.78 216.63 359.47 186.42"/>
    <polygon class="cls-9" points="313.76 174.89 315.6 176.79 300.82 191.2 298.84 189.15 313.76 174.89"/>
    <polygon class="cls-9" points="320.92 156.96 322.56 158.78 290.66 187.8 288.7 185.63 320.92 156.96"/>
    <path class="cls-9" d="M291.37,174.65l25.17-21.23c-2.31,1.3-4.67,2.41-7.07,3.39-2.37,2.48-5.23,4.55-8.41,6.19l-11.51,9.48,1.82,2.17Z"/>
    <g>
      <path class="cls-8" d="M454.32,459.79c.15-1.16.28-2.29.38-3.35.1-1.22.19-2.37.27-3.41l.12-1.49c.18-2.65.45-7.47.86-12.03.43-4.69.93-8.99,2.39-11.03.63-.77,1.39-1.19,2.56-1.09,3.57.28,9.77,6.97,14,10.69.94.86,1.8,1.61,2.54,2.18,1.4,1.14,2.98,2.41,4.65,3.76,1.23.98,2.53,1.96,3.89,2.9,1.44-1.37,3.12-2.61,5.05-3.8-1.81-.95-3.55-2.02-5.2-3.13-1.85-1.26-3.59-2.45-5.15-3.51-.75-.49-1.61-1.13-2.55-1.86-5.5-4.16-12.78-10.94-17.71-11.34-2.07-.15-3.57.52-4.73,2.14-3.07,4.48-4.01,15.36-5.82,25.92l-.25,1.42c-.19,1.05-.39,2.22-.61,3.45-.33,1.82-.74,3.82-1.34,5.77.09-.02.19-.02.29-.04,2.12-.75,4.24-1.46,6.37-2.18Z"/>
      <path class="cls-8" d="M410.54,362.68c1.01-.14,1.88-.26,2.56-.35,4.21-.46,9.38.31,13.59,2.27,4.21,1.92,7.48,4.96,7.99,7.77.56,2.74-1.91,6.28-6.55,9.06-1.33.82-4.4,1.8-7.95,2.81-5.53,1.58-12.15,3.14-17.92,5.1-5.8,2-10.77,4.31-13.17,8.21-1.37,2.23-1.85,4.99-1.36,8.02.81,4.99,4.4,8.87,8.85,11.46,4.46,2.64,9.75,4.11,13.96,5.18,1.39.36,2.63.68,3.66.94l1.1.3c2.33.68,6.59,1.73,10.54,2.13,3.95.51,7.54.25,8.56.34.21.07.67-.02-.46,1.28-2.85,3.34-7.95,11.71-11.75,19.41-1.84,3.86-3.34,7.69-3.28,11.48.21,2.71,1.05,7.13,3.84,10.99,1.98-.52,3.96-1.03,5.94-1.53-1.5-2.1-2.59-4.76-2.89-7.73-.38-3.23.44-7.17,1.47-11.17,1.19-4.64,2.82-9.32,4.46-13.53,1.65-4.2,3.57-7.76,5.45-9.6,1.82-1.67,1.76-1.15,1.01-1.08-.59.13-1.63.25-3.03.2-1.39-.13-3.13,0-5.1-1.21-3.94-1.82-8.79-3.44-13.73-4.99l-1.07-.34c-1.05-.32-2.33-.7-3.75-1.13-6.49-1.81-18.5-5.95-19.61-12.75-.25-1.47-.05-2.69.62-3.81,3.72-6.07,19.19-8.4,28.43-10.64,3.93-.9,7.06-1.67,8.76-2.59,2.55-1.31,10.85-5.97,9.06-15.95-1.25-6.63-6.96-11.39-12.75-13.34-5.82-2.07-11.67-1.57-14.43-.96-.7.15-1.58.38-2.61.67-6.09,1.69-18.5,5.88-21.86,6.99-.77.12-1.21-.09-1.44-.8-.53-1.58.23-5.21.93-9.54.75-4.36,1.6-9.37,2.08-13.45.3-2.67.46-5.02.26-7.05-.29-2.88-.87-6.5-2.83-10.03-1-1.72-2.31-3.49-4.2-4.9-1.94-1.5-4.39-2.63-7.38-3.31-7.04-1.5-12.98.73-16.12,2.66-2.44,1.5-4.32,3.27-5.69,5.18-1.26,1.82-1.98,3.7-2.37,5.51-.75,3.64-.15,7.05.68,9.93.35,1.23,1.27,3.11,2.61,5.63,1.92,3.6,5.41,9.35,8.41,14.68,3,5.32,5.22,10.52,4.12,13.39-.13.39-.61,1.53-3.19,2.22-6.32,1.66-14.91-1.82-22.03-4.41-2.42-.89-4.68-1.68-6.75-2.19-2.11-.51-6.79-1.5-11.81-.95-5.01.49-10.44,2.63-13.47,7.87-2.68,4.62-2.71,10.4.2,16.02,4.17,7.94,11.09,10.57,17.6,12.95,6.03,2.11,11.82,3.97,16.67,7.02,2.99,1.85,4.68,3.58,4.47,5.11-.23,1.79-2.33,3.96-6.33,6.24-4,2.24-9.93,4.6-17.77,5.94l-2.29.37c-2.74.42-7.38,1.29-11.76,1.62-4.41.38-8.14.06-9.81.61-.82.37-1.46,1-.57,3.98.91,3.52,3.16,8.63,5.4,13.72,2.08.64,4.13,1.42,6.17,2.33-3.02-5.52-6.88-11.68-8-15.26-.48-1.68-.21-2.07.25-2.26.94-.53,3.62-.26,6.94-.17,3.46.16,7.58.12,11.6.02l2.26-.05c7.02-.23,13.88-1.93,19.07-5,5.2-3.02,8.59-7.35,9.06-11.32.33-2.9-.82-4.6-2.25-5.93-1.4-1.3-3.1-2.39-3.97-2.98-5.33-3.75-11.5-6.45-17.53-9.07-6.13-2.79-12.07-5.66-15.31-12.53-1.18-2.46-2.1-6.13-.71-8.61,2.66-4.83,12.51-6.1,19.97-4.47,2.01.41,4.23,1.08,6.57,1.83,8.25,2.64,17.35,5.92,24.97,3.87,4.09-1.09,5.72-3.37,6.42-5.17,1.55-3.85-.02-8.38-2.68-13.79-2.64-5.39-6.21-11.87-8.93-18.88-.93-2.36-1.58-4.46-1.73-5.52-1.09-6.97,1.72-12.7,5.91-14.88.62-.27,2.61-1.47,6.55-1.02,8.69,1.02,12.18,9.36,13.26,13.94.44,1.69.67,3.94.78,6.53.2,4.87.06,10.63-.19,15.6-.21,4.95-.77,9.05-.37,10.92.24,1.14.76,1.31,2.09.87,4.59-.98,18.18-3.76,25.56-4.93Z"/>
      <path class="cls-8" d="M315.06,204.5c-1.71.15-4.03.01-5.22-1.35-2.15-2.37-1.96-9.03.45-15.09.4-1.01,1.56-3.04,2.96-5.41,7.68-13.07,14.63-24.86,10.98-31.58-.34-.7-.79-1.31-1.33-1.84-1.24.94-2.5,1.8-3.77,2.61.53.26.98.58,1.22,1.04,2.54,4.76-7.45,19.91-11.4,26.57-1.62,2.64-2.78,4.57-3.3,5.81-.97,2.18-5.12,13.68.71,20.43,1.76,1.97,5,4.33,10.57,3.71,7.43-.78,13.65-4.72,19.62-8.58,2.23-1.45,4.41-2.88,6.54-4.1.58-.35,1.26-.76,2.01-1.21,4.05-2.48,12.39-7.86,16.65-5.19,7.36,4.41-.16,20.72-3.26,27.81-.65,1.45-1.19,2.68-1.54,3.61l-.38,1.01c-2.18,5.69-5.77,15.37.95,22.05,5.76,5.73,13.46,4.81,22.47-2.68,1.39-1.16,3.11-2.99,5.09-5.12,6.53-6.98,17.28-18.78,25.19-14.47,6.7,3.49,2.74,16.59.66,23.63-.41,1.4-.77,2.62-1.01,3.6-.16.62-.36,1.38-.57,2.22-2.3,8.37-6.1,24.2,5.83,28.53,11.59,4.18,21.03-6.56,29.79-15.84,4.06-4.34,7.94-8.45,11.14-9.79,3.36-1.41,6.06-1.66,7.31-.61,3.69,2.97,2.53,15.58-1.28,25.13l-.37.94c-4.08,10.24-7.91,21.25-4.59,27.48.98,1.73,2.77,3.83,6.97,4.5,7.72,1.33,16.3-3.46,24.31-7.6,2.66-1.36,5.19-2.6,7.41-3.29l.84-.26c4.21-1.32,11.57-3.33,16.24-.14,1.95,1.26,2.51,2.46,2.75,3.25,1.02,3.09-.44,7.6-4.62,12.77-.67.83-2.47,2.43-4.59,4.22-11.65,9.95-23.89,18.1-24.28,24.81-.12,1.78.54,4.18,4.13,6.75,6.41,4.63,15.65,5.93,23.86,7.16,3.07.48,5.98.97,8.5,1.74,6.38,1.89,13.3,7.18,13.49,12,.14,3.33-3.42,6.22-5.6,7.53-5.04,3.13-10.7,3.75-16.55,4.32-7.22.61-14.6,1.27-21.42,4.44-4.34,1.94-6.46,3.86-6.78,6.41-.64,5.35,8.32,11.81,17.3,21.79,2.83,3.12,5.9,6.97,8.17,10.89,1.36-1.52,2.7-3.06,4.01-4.62-2.38-3.5-5.44-6.95-8.85-10.28-6.66-6.76-16.7-14.05-16.41-17.19.12-.96,1.6-1.99,4.22-3.02,6.05-2.58,12.66-2.82,19.73-3.12,5.97-.31,12.2-.73,18.03-4.1,5.8-3.35,8.65-8.18,8.39-13.6-.5-9.67-11.08-15.52-17.02-16.97-2.74-.73-5.74-1.13-8.92-1.49-7.66-.85-16.24-1.65-21.74-5.42-1.58-1.08-2.33-2.08-2.3-3.05.17-2.67,4.35-6.18,9.23-9.99,5.01-3.73,10.48-7.8,13.76-10.24,2.53-1.9,4.29-3.33,5.19-4.32,3.8-4.2,7.83-10.41,5.64-17.54-.68-2.3-2.5-5.61-6.39-8.14-6.82-4.27-14.71-1.7-19.77.17l-.82.3c-2.41.88-4.98,2.31-7.68,3.85-7,4.03-14.63,8.82-20.86,7.78-2.83-.48-3.5-1.76-3.75-2.19-2.59-5.1,3.48-18.58,5.41-23.17l.4-.95c.48-1.15,2.79-6.79,3.72-13.27.94-6.41.39-13.67-4.14-17.34-3.42-2.73-7.99-2.99-13.41-.58-3.88,1.7-7.75,5.88-12.2,10.75-7.31,7.96-16.15,18-24.5,14.99-7.15-2.52-3.56-16.6-1.98-22.57.22-.88.42-1.66.59-2.31.22-.93.56-2.1.94-3.43,2.57-8.87,6.79-23.64-3.61-29.3-11.51-6.28-23.28,6.48-31.28,14.91-1.92,2.03-3.58,3.77-4.82,4.78-6.85,5.57-12.04,6.85-15.19,3.7-4.24-4.17-1.21-12.58.45-17.05l.38-1.03c.32-.88.82-2.06,1.42-3.45,4.1-9.64,11.86-27.19.65-33.99-6.98-4.34-16.19,1.46-21.85,4.83-.73.43-1.39.82-1.94,1.14-2.24,1.25-4.5,2.69-6.82,4.14-5.65,3.53-11.61,7.17-18.17,7.79Z"/>
    </g>
    <g>
      <path class="cls-8" d="M471.51,437.43c.33,1.25.83,3.13,1.43,5.4.67,2.56,1.48,6.13,1.85,9.9,1.72-.92,3.55-1.71,5.45-2.38-.64-3.37-1.58-6.6-2.54-9.35-.75-2.1-1.42-3.82-1.77-4.98-2.39-8.37-4.52-15.22-3.46-16.63.58-.68,2.57-.65,5.68.14,5.57,1.33,11.17,3.73,17.23,6.07,3.87,1.44,7.91,2.77,12.19,3.25,1.67-1.87,3.3-3.77,4.9-5.69-5.09.38-10.03-.87-15.01-2.33-6.29-1.95-12.59-4.06-18.84-5.2-5.06-.96-8.1-.77-9.38.98-1.17,1.73-.68,5.39.01,9.53.77,4.19,1.63,8.57,2.27,11.29Z"/>
      <path class="cls-8" d="M412.52,410.68c-1.54.27-2.8.5-3.65.71l-.71.17c-4.99,1.21-10.08,2.79-14.14,5.25-2.02,1.25-3.78,2.71-5.1,4.48-.67.87-1.21,1.86-1.64,2.89-.43,1.21-.7,3.26-.76,5.03-.26,6.74,2.6,13.21,7.89,16.99,5.35,3.86,10.71,4.18,15.16,3.27,4.52-.97,8.35-3.2,11.87-5.67,5.07-3.68,9.42-7.58,12.67-11.2.54-.66.98-1.25,1.34-1.76.4-.49.92-.82,1.27-1.1.75-.54,1.35-.86,1.68-.65,1.11.77,2.03,7.09,3.6,14.93.19,1.33.49,3.36.85,5.79.58,3.8,1.56,8.27,3.29,12.48.53-.11,1.09-.17,1.63-.26,1.41-.5,2.82-.96,4.23-1.45-2.06-4.05-3.42-8.37-4.21-11.47-.64-2.54-1.17-4.65-1.52-6.05-.55-1.83-1.72-5.75-2.93-9.78-.56-1.93-1.08-3.81-1.64-5.17-.45-1.58-1.07-2.44-1.71-2.95-.32-.22-.73-.2-1.16-.1-.2.03-.43.11-.68.23-.12.17-.18.43-.33.71-.62,1.1-1.94,2.5-3.94,4.25-4.15,3.48-9.75,6.88-15.46,9.59-3.69,1.7-7.52,3.05-11.64,3.26-4.06.17-8.47-.88-12.31-4.67-1.7-1.64-3.66-4.51-3.63-7.55.01-1.1.22-2.4.79-3.81.28-.7.65-1.44,1.12-2.18.47-.68,1.04-1.14,1.72-1.69,2.71-2.14,7.21-4.38,14.42-6.35l.71-.19c.79-.22,1.98-.46,3.42-.74,10.61-2.19,22.25-4.16,26.17-11.56,1.28-2.46,1.62-5.46.93-8.63-1.25-5.74-5.51-9.99-10.87-12.61-5.34-2.64-11.73-3.78-17.39-4.53-3.77-.5-7.03-.79-9.13-1.23-6.84-1.45-10.25-3.04-10.71-4.42-.33-1.44,1.65-3.6,5.2-6.93,2.31-2.16,5.82-4.91,9.26-8.08,3.76-3.48,7.56-7.51,9.74-12.48,2.26-4.85,2.34-11.44-1.72-17.82-2.82-4.45-7.04-7.53-11.73-8.82-6.44-1.78-12.44.3-16.84,4.27-4.41,3.93-7.54,9.92-9.11,16-1.27,4.82-1.7,10.26-1.41,14.61.24,4.36,1.18,7.47,1.16,8.18.02.11-.05.44-1.7-.22-2.49-.87-6.18-2.31-10.1-4.18-3.94-1.85-8.15-4.15-12.15-6.24-4.76-2.47-9.38-4.67-13.68-5.48-6.97-1.33-12.32.34-15.4,5.06-3.7,5.45-2.86,13.79,2.6,20.95,1.39,1.84,3.71,4.01,6.45,6.43,7.14,6.42,18.32,15.13,18.5,20.46.04.92-.26,1.6-.96,2.17-1.9,1.6-6.21,2.31-10.96,3-4.8.63-9.85,1.29-13.13,1.72-1.67.24-3.04.48-3.95.71-4.75,1.15-9.97,3.26-13.95,6.24-4.02,2.93-6.85,6.66-7.38,9.8-.5,2.95.97,4.52,4.28,6.37,5.82,3.18,12.57,7.74,18.68,12.49,4.92,4,9.47,8.32,11.09,15.07.76,3.32.43,6.28-.72,8.11,1.41.51,2.8,1.06,4.2,1.6,2.69-4.14,3.45-9.42,1.7-14.62-1.23-3.74-3.29-6.59-5.75-8.98-2.44-2.36-5.09-4.16-7.89-5.81-6.73-3.97-13.18-6.46-18.6-9.91-1.13-.75-3.04-2.15-2.79-3.57.12-.65.72-1.88,3.2-3.85,2.49-1.92,6.85-4.74,14.68-7.37.84-.28,2.12-.59,3.67-.94,10.71-2.58,22.24-3.86,26.72-7.37,1.44-1.18,2.1-2.67,2.06-4.59-.15-7.24-10.88-16.81-19.4-25.04-2.53-2.46-4.68-4.65-5.82-6.29-4.44-6.34-4.55-12.15-2.93-14.5,1.4-1.99,4.98-2.92,9.71-2.16,3.9.61,8.32,2.65,12.96,4.88,4.38,2.12,9.03,4.38,13.6,6.03,4.53,1.68,9.05,2.66,12.33,3.34,2.37.54,3.41.73,2.91.19-.35-.87-1.14-4-.88-8.58.24-4.6,1.36-10.45,4.13-16.48,2.06-4.51,5.27-9.42,9.24-12.73,3.96-3.39,8.61-5.06,12.5-3.88.54.23,2.45.73,4.61,3.67,3.4,4.65,3.63,9.79,2.21,14.44-1.4,4.65-4.36,8.84-7.39,12.44-3.14,3.74-6.39,7-8.74,9.62-5.93,6.46-7.14,8.46-6.41,10.3.88,2.64,5.82,5.19,13.86,7.53,2.33.66,5.72,1.2,9.57,1.97,9.11,1.63,22.89,5.79,24.65,14.03.32,1.44.2,2.62-.36,3.73-3.1,6.08-17.16,8.12-23.15,9.26Z"/>
      <path class="cls-8" d="M318.04,180.12c-6.46,3.89-12.54,7.44-20.21,7.59-1.72.07-4.72-.21-5.88-1.88-.78-1.07-2.96-6.21,5.71-20.32.25-.41.6-.91,1.01-1.48-2.47,1.06-5.06,1.97-7.79,2.54-.02,0-.04,0-.06.01-5.28,9.51-5.98,16.55-2.66,21.33,2.28,3.33,6.12,5,11.2,4.87,8.6-.21,15.39-4.43,21.82-8.43,5.49-3.45,10.68-6.8,16.62-8.38,3.27-.87,5.62-.78,6.62.21,2.02,2.15,1.01,9.89-2.05,18.12-.42,1.1-1.2,2.72-2.13,4.69-4.82,9.95-12.43,27.03-1.17,34.55,10.48,6.74,23.51-4.79,31.91-12.47,1.92-1.75,3.52-3.23,4.67-4.08,6.24-4.6,13.08-7.18,15.71-5.77,1.34.71,2.14,3.35,2.08,7.11-.09,5.46-1.89,10.94-3.77,16.75-2.56,8-5.2,16.32-2.72,25.1,1.23,4.32,3.56,7.19,6.88,8.39,7.37,2.73,16.23-4.12,23.83-11.17l.61-.57c.62-.57,1.48-1.45,2.52-2.53,4.22-4.34,14.04-14.54,20.55-13.68,1.2.16,2.2.74,3.14,1.81,5.11,5.82,1.28,18.58-1.7,27.79-1.23,3.81-2.29,7.08-2.73,9.6-1.43,8.38.04,14.69,4.02,17.54,2.55,1.67,6.91,2.84,14.91-1.57,3.14-1.72,6.73-4.6,10.61-7.59,7.62-5.83,16.67-12.44,25.05-9.64,2.3.72,3.08,1.76,3.47,2.44,3.13,5.25-2.71,16.66-8.33,24.88-7.32,10.99-14.62,19.13-13.85,24.47.3,2.12,1.78,3.62,4.46,4.92,7.19,3.43,18.01,2.83,27.77,2.52,5.17-.13,10-.09,13.85,1.08,4.62,1.42,7.58,4.01,7.86,6.4.48,3.09-2.69,8.44-9.38,11.99-1.68.89-4.45,1.84-7.67,2.87-10.84,3.54-25.59,7.38-28.35,15.5-.71,2.05-.6,4.09.3,6.03,2.9,6.04,13.4,11.01,22.95,16.08,1.45.76,2.63,1.4,3.39,1.89,6.8,4.45,10.22,8.25,11.94,11.21,1.29-1.37,2.63-2.71,4.01-3.99-2.98-5.08-8.55-9.25-13.73-12.19-.84-.48-2.13-1.11-3.7-1.84-5.97-2.9-18.54-7.99-20.99-12.98-.45-.92-.5-1.79-.14-2.77,2.06-5.76,16.63-9.14,25.41-11.66,3.37-.95,6.28-1.82,8.22-2.76,8.28-3.97,12.95-10.95,11.99-17.81-.77-5.71-4.94-9.95-11.93-11.81-4.3-1.15-9.42-.94-14.77-.54-8.98.68-19.03,1.87-25.06-.88-2.11-.96-2.24-1.81-2.29-2.11-.25-1.84,1.73-4.75,4.5-8.38,2.82-3.64,6.16-7.95,9.14-11.8,7.54-10.11,13.59-21.23,8.8-29.51-1.68-2.99-4.47-5.1-8.05-6.24-10.77-3.28-20.31,4.27-28.38,10.81-3.64,2.98-7.01,5.85-9.81,7.46-4.33,2.49-7.89,3.2-9.69,2.07-1.79-1.32-3.02-5.65-1.68-12.65.41-2.22,1.5-5.35,2.73-9,3.62-10.6,7.75-24.1.72-32.1-1.99-2.27-4.53-3.68-7.27-4.04-8.25-1.06-16.84,7.18-24.37,14.88-.98,1.01-1.79,1.84-2.38,2.37l-.63.58c-11.17,10.27-16.42,11.32-18.8,10.45-1.57-.59-2.47-2.7-2.95-4.4-2.17-7.58.23-15.38,2.6-22.91,1.84-5.84,3.74-11.86,3.81-17.92.09-5.97-1.61-9.85-5.09-11.76-7.08-3.83-17.89,3.51-21.11,5.8-1.27.92-2.99,2.48-5,4.27-6.11,5.52-19.13,16.78-25.91,12.4-7.02-4.6.28-21.3,3.54-28.28.96-2.1,1.76-3.83,2.18-5.01,1.86-5.25,5.75-17.72.66-23.22-2.51-2.61-6.28-3.25-11.67-1.84-6.54,1.64-12.31,5.2-17.92,8.6Z"/>
    </g>
  </g>
  <ellipse class="cls-9" cx="452.57" cy="273.98" rx="11.37" ry="15.33" transform="translate(30.39 592.81) rotate(-68.25)"/>
  <ellipse class="cls-9" cx="423.29" cy="255.87" rx="11.37" ry="15.33" transform="translate(10.41 528.21) rotate(-64.56)"/>
  <circle class="cls-2" cx="392.38" cy="302.13" r="170.89"/>
  <ellipse class="cls-9" cx="346.06" cy="275.57" rx="11.37" ry="15.33" transform="translate(-95.21 306.77) rotate(-42.58)"/>
  <ellipse class="cls-9" cx="496.82" cy="317.76" rx="11.37" ry="15.33" transform="translate(-58.17 517.24) rotate(-52.37)"/>
  <ellipse class="cls-9" cx="480.06" cy="290.99" rx="11.37" ry="15.33" transform="translate(-19.97 546.14) rotate(-58.26)"/>
  <path class="cls-5" d="M541.14,283.54c-1.42,1.07-1.38,3.15-1.57,4.92s-1.34,3.89-3.09,3.59c-.72-.12-1.3-.65-1.83-1.15-1.12-1.05-2.24-2.1-3.35-3.16-.22-.21-.48-.43-.78-.4-.28.03-.49.27-.64.5-1.41,2.16-.53,5.09.86,7.27,1.39,2.17,3.28,4.11,4.01,6.58.47,1.6.08,3.8-1.54,4.21-1.32.34-2.55-.73-3.5-1.71-2.69-2.76-5.37-5.52-8.06-8.28-1.93,2.62-1.06,6.4.68,9.15,1.74,2.75,4.23,5,5.74,7.88.27.52.52,1.09.49,1.69-.06,1.25-1.37,2.15-2.62,2.16-1.25,0-2.4-.67-3.39-1.43-3.49-2.7-5.72-6.67-8.62-9.99-.56-.63-1.31-1.3-2.13-1.1-.82.2-1.19,1.17-1.3,2.01-.52,3.79,1.3,7.51,3.54,10.61,1.04,1.43,2.15,3.53.86,4.74-.38.36-.91.53-1.43.61-2.41.35-4.72-1.09-6.46-2.8s-3.18-3.74-5.2-5.1c-2.02-1.36-4.93-1.85-6.79-.28"/>
  <path class="cls-5" d="M513.7,244.81c-1.66,1.22-3.88,1.66-5.88,1.16-.48-.12-.99-.29-1.46-.14-1.19.37-.99,2.14-.35,3.21.8,1.33,1.91,2.47,3.22,3.31.32.2.68.43.77.79.12.44-.2.88-.55,1.18-1.52,1.33-3.82,1.5-5.71.81s-3.43-2.13-4.66-3.73c-.94-1.22-1.81-2.61-3.22-3.21-1.41-.6-3.51.22-3.43,1.76.02.53.3,1.02.59,1.47,1.95,3.09,4.62,5.73,7.74,7.64.99.61,2.05,1.16,2.77,2.08.71.92.96,2.32.21,3.21-.54.63-1.44.83-2.28.83-3.8.02-6.81-3.02-9.53-5.66-2.73-2.64-6.34-5.28-10-4.24-.37.1-.75.26-.99.56-.56.72-.04,1.76.5,2.49,2.8,3.79,6.19,7.16,9.99,9.95,1,.73,2.06,1.46,2.65,2.54s.52,2.65-.5,3.34c-.69.46-1.59.41-2.41.26-1.73-.34-3.37-1.09-4.75-2.19-1.71-1.36-2.98-3.2-4.48-4.8s-3.4-3.02-5.59-3.14c-2.1,2.1-1.16,5.83.86,8.01,2.01,2.19,4.82,3.48,6.99,5.51,1.84,1.72,3.2,3.96,3.86,6.39.45,1.66.31,3.89-1.3,4.49-.86.32-1.82.02-2.69-.28-2.87-1-5.73-1.99-8.6-2.99"/>
  <ellipse class="cls-9" cx="293.79" cy="307.62" rx="11.37" ry="15.33" transform="translate(-110.2 440.79) rotate(-64.56)"/>
  <ellipse class="cls-9" cx="284.61" cy="253.26" rx="11.37" ry="15.33" transform="translate(-85.04 345.5) rotate(-55.68)"/>
  <ellipse class="cls-9" cx="280.1" cy="364.53" rx="15.33" ry="11.37" transform="translate(-43.16 37.67) rotate(-7.14)"/>
  <path class="cls-5" d="M447.2,268.93c5.72,2.44,12.22,3.01,18.28,1.6.57-2.01-.49-4.18-2.01-5.61-1.52-1.43-3.45-2.33-5.25-3.39-6.1-3.62-10.82-9.53-13-16.28,5.64.33,11.12,2.89,15,7,1.35,1.44,3.12,3.23,4.95,2.48,2.23-.91,1.53-4.33,0-6.19-2.39-2.91-5.74-4.83-8.61-7.26-2.87-2.43-5.42-5.81-5.17-9.56,3.18-2.05,7.33.12,10.32,2.43,2.99,2.31,6.59,4.97,10.17,3.78-.53-2.51-3.19-3.82-5.31-5.25-4.34-2.91-7.41-7.65-8.3-12.79,2.64-1.03,5.67.06,7.96,1.74,2.29,1.68,4.13,3.9,6.42,5.57,1.47,1.07,3.27,1.92,5.06,1.58,3.19-.62,4.24-5.66,1.56-7.5,1.04-.86,2.68-.47,3.7.41s1.65,2.13,2.45,3.21c2.54,3.4,7.18,5.07,11.3,4.07"/>
  <path class="cls-5" d="M419.27,252.02c2.76-1.36,5.11-3.55,6.64-6.22.42-.73.78-1.62.43-2.37-.3-.65-1.02-.97-1.68-1.24-3.01-1.24-6.03-2.47-9.04-3.71-1.11-.46-2.45-1.49-1.88-2.55.18-.34.52-.55.86-.72,6.07-3.15,13.95,1.47,20.18-1.37,1.01-.46,2.04-1.27,2.09-2.39.08-1.54-1.64-2.47-3.1-2.96-5.93-1.98-12.18-3-18.43-3.01-3.74,0-7.7.31-11.02-1.42,1.77-4.77,8.03-5.66,13.12-5.78,5.91-.13,11.82-.26,17.73-.4.88-1.2.48-3-.52-4.1-1.01-1.1-2.46-1.66-3.89-2.1-4.75-1.48-9.78-2.11-14.75-1.83-1.69.09-3.44.28-5.02-.32-1.58-.6-2.9-2.3-2.41-3.92.75-2.47,4.25-2.27,6.8-1.82,4.4.78,8.94.73,13.32-.15,1.7-.34,3.83-1.65,3.14-3.24-.25-.57-.81-.93-1.35-1.24-2.2-1.27-4.53-2.31-6.94-3.11-1.46-.48-3.16-1.06-3.69-2.5-1.25-3.41,5.36-6.32,3.71-9.56"/>
</svg>