<?xml version="1.0" encoding="UTF-8"?>
<svg id="Layer_1" data-name="Layer 1" xmlns="http://www.w3.org/2000/svg" viewBox="0 0 569.04 272.29">
  <defs>
    <style>
      .cls-1, .cls-2, .cls-3, .cls-4, .cls-5, .cls-6, .cls-7 {
        font-family: ArialMT, Arial;
        font-size: 25.08px;
      }

      .cls-1, .cls-8 {
        fill: #010101;
      }

      .cls-2, .cls-5, .cls-7 {
        isolation: isolate;
      }

      .cls-2, .cls-9 {
        fill: #246bae;
      }

      .cls-3, .cls-10, .cls-5 {
        fill: #b3202c;
      }

      .cls-11, .cls-4, .cls-7 {
        fill: #231f20;
      }

      .cls-12 {
        stroke: #b3202c;
      }

      .cls-12, .cls-13, .cls-14, .cls-15 {
        fill: none;
        stroke-width: 3px;
      }

      .cls-12, .cls-15 {
        stroke-miterlimit: 10;
      }

      .cls-13 {
        stroke: #231f20;
      }

      .cls-14 {
        stroke: #246bae;
      }

      .cls-16 {
        opacity: .75;
      }

      .cls-6 {
        fill: #246cae;
      }

      .cls-15 {
        stroke: #010101;
      }
    </style>
  </defs>
  <g id="path1755432">
    <g>
      <line class="cls-14" x1="107.64" y1="43.07" x2="249.47" y2="184.37"/>
      <path class="cls-9" d="M258.45,193.31c-5.79-2.64-13.69-5.19-19.76-5.59l9.61-4.53,4.49-9.62c.43,6.07,3,13.97,5.67,19.74Z"/>
    </g>
  </g>
  <g id="path1755568">
    <g class="cls-16">
      <line class="cls-12" x1="107.64" y1="191.91" x2="249.47" y2="50.61"/>
      <path class="cls-10" d="M258.45,41.66c-2.66,5.78-5.24,13.67-5.67,19.74l-4.49-9.62-9.61-4.52c6.07-.4,13.98-2.95,19.76-5.59Z"/>
    </g>
  </g>
  <g id="path1755588">
    <g>
      <line class="cls-13" x1="245.78" y1="115.43" x2="107.64" y2="118.06"/>
      <path class="cls-11" d="M258.45,115.19c-6-2.1-13.47-5.73-18.14-9.64l3.8,9.92-3.42,10.05c4.51-4.09,11.84-8,17.76-10.33Z"/>
    </g>
  </g>
  <g>
    <line class="cls-15" x1="293.07" y1="227.2" x2="63.28" y2="227.2"/>
    <path class="cls-8" d="M305.74,227.2c-5.96-2.21-13.36-5.99-17.95-9.99l3.61,9.99-3.61,9.99c4.59-4,11.99-7.77,17.95-9.99Z"/>
  </g>
  <g>
    <line class="cls-15" x1="75.24" y1="16.73" x2="75.24" y2="239.15"/>
    <path class="cls-8" d="M75.24,4.06c-2.21,5.96-5.99,13.36-9.99,17.95l9.99-3.61,9.99,3.61c-4-4.59-7.77-11.99-9.99-17.95Z"/>
  </g>
  <text class="cls-1" transform="translate(84.18 264.15)"><tspan x="0" y="0">log2(Relative size)</tspan></text>
  <g>
    <text class="cls-5" transform="translate(281.2 21.52) scale(.97 1)"><tspan x="0" y="0">Slope = 1</tspan></text>
    <text class="cls-3" transform="translate(281.2 51.86)"><tspan x="0" y="0">(Concentration~Size)</tspan></text>
  </g>
  <g>
    <text class="cls-7" transform="translate(281.2 95.87) scale(.97 1)"><tspan x="0" y="0">Slope = 0</tspan></text>
    <text class="cls-4" transform="translate(281.2 126.21)"><tspan x="0" y="0">(Concentration=Constant)</tspan></text>
  </g>
  <g>
    <text class="cls-2" transform="translate(281.2 170.23) scale(.97 1)"><tspan x="0" y="0">Slope = -1</tspan></text>
    <text class="cls-6" transform="translate(281.2 200.57)"><tspan x="0" y="0">(Concentration~1/Size)</tspan></text>
  </g>
  <g>
    <text class="cls-1" transform="translate(49.69 228.97) rotate(-90)"><tspan x="0" y="0">log2(Concentration)</tspan></text>
    <text class="cls-4" transform="translate(21.52 146.21) rotate(-90)"><tspan x="0" y="0">Relative</tspan></text>
  </g>
</svg>